<svg width="163" height="45" viewBox="0 0 163 45" fill="none" xmlns="http://www.w3.org/2000/svg">
<path d="M35.2 29.96V16H28V29.96C28 33.84 26.92 38.36 17.6 38.36C8.28 38.36 7.2 33.88 7.2 29.96V16H0V29.96C0 39.72 5.28 44.4 17.6 44.4C29.88 44.4 35.2 39.68 35.2 29.96Z" fill="url(#paint0_linear_245_1742)"/>
<path d="M69.5687 16H37.9688V22.04H59.2087L37.9688 37.96V44H69.5687V37.96H48.2887L69.5687 22.04V16Z" fill="url(#paint1_linear_245_1742)"/>
<path d="M103.338 28.8C104.738 27.24 105.538 25.32 105.538 23.36C105.538 19.24 103.578 16 97.2181 16H72.5781V44H98.1781C104.538 44 107.298 40.56 107.298 35.84C107.298 32.6 105.738 30.28 103.338 28.8ZM79.7781 21.2H94.6181C96.5781 21.2 98.3381 21.2 98.3381 24.08C98.3381 27 96.5781 27 94.6581 27H94.6181H79.7781V21.2ZM96.4181 38.44H79.7781V32.52H96.4181C98.3381 32.52 100.098 32.52 100.098 35.48C100.098 38.44 98.3381 38.44 96.4181 38.44Z" fill="url(#paint2_linear_245_1742)"/>
<path d="M121.456 39H111.281V40.2943H115.304V45H117.433V40.2943H121.456V39Z" fill="white"/>
<path d="M131.833 41.2029C131.833 39.8657 130.544 39 128.663 39H122.156V45H124.285V43.3971H127.716L129.053 45H131.561L130.035 43.2171C131.147 42.9 131.833 42.18 131.833 41.2029ZM124.285 40.2943H128.071C128.71 40.2943 129.704 40.2943 129.704 41.2029C129.704 42.1029 128.71 42.1029 128.071 42.1029H124.285V40.2943Z" fill="white"/>
<path d="M134.66 39L132.531 39V42V45H134.66V39Z" fill="white"/>
<path d="M142.111 39H135.604V45L137.733 45V43.3971H142.111C143.992 43.3971 145.281 42.54 145.281 41.2029C145.281 39.8657 143.992 39 142.111 39ZM141.519 42.1029H137.733V40.2943H141.519C142.158 40.2943 143.152 40.2943 143.152 41.2029C143.152 42.1029 142.158 42.1029 141.519 42.1029Z" fill="white"/>
<path d="M156.098 16.411C155.463 13.3986 153.988 10.514 151.837 8.15244C149.692 5.78713 146.88 3.95248 143.735 2.94563C140.595 1.92932 137.125 1.75027 133.797 2.44861C130.467 3.14128 127.282 4.7416 124.683 7.07036L124.457 6.84706C126.826 4.21936 129.939 2.18412 133.419 1.0643C136.894 -0.0593003 140.712 -0.293979 144.39 0.477039C148.068 1.2386 151.576 2.9945 154.441 5.54198C157.312 8.0819 159.538 11.4172 160.76 15.1448L156.098 16.411Z" fill="url(#paint3_linear_245_1742)"/>
<path d="M138.21 24.131C145.443 20.6323 139.821 22.9112 154.511 19.4192C154.52 10.3024 147.434 4.12664 138.229 4.11824C129.024 4.10984 121.555 11.4937 121.547 20.6105C121.538 29.7273 129.005 24.1226 138.21 24.131Z" fill="url(#paint4_linear_245_1742)"/>
<path opacity="0.24" d="M146.015 21.5465C149.078 19.6265 149.78 15.2833 147.583 11.8456C145.386 8.40785 141.122 7.17743 138.059 9.09737C134.997 11.0173 134.295 15.3606 136.491 18.7983C138.688 22.236 142.952 23.4664 146.015 21.5465Z" fill="#FFC700"/>
<path opacity="0.24" d="M141.878 21.8393C147.209 18.4976 149.671 12.8799 147.379 9.29191C145.086 5.7039 138.905 5.50425 133.574 8.84598C128.243 12.1877 125.781 17.8054 128.073 21.3934C130.366 24.9814 136.547 25.1811 141.878 21.8393Z" fill="#FFC700"/>
<path d="M162.92 14.5624C162.861 14.4243 162.762 14.3013 162.634 14.2161C162.504 14.1309 162.346 14.0797 162.165 14.0871L160.504 14.1499C158.432 13.3558 156.156 13.2516 154.018 13.8471L136.592 18.7147L130.678 16.9887L128.221 14.9067L127.463 14.9797L129.9 18.2812L132.788 20.1595L128.734 21.7004L123.293 21.9185L112.96 15.923L111.097 16.7135L116.459 24.9336L114.752 24.7637L113.461 25.0915L116.167 26.5404C115.985 26.7444 115.998 27.081 116.248 27.257C116.893 27.7133 117.67 27.9485 118.462 27.9265C124.118 27.7691 129.317 27.6037 133.015 26.6202L137.774 25.1007L138.669 25.1469L138.732 25.3379C138.793 25.5195 138.985 25.6236 139.172 25.5746L145.418 23.9109L145.42 23.9109C145.42 23.9109 145.42 23.9109 145.422 23.909L145.429 23.9071L145.429 23.9053C145.565 23.8392 145.531 23.3381 145.366 22.6781L155.125 19.5618C156.194 19.2678 157.203 18.9171 158.148 18.5077C159.527 17.9096 160.799 17.0996 161.947 16.1383C161.987 16.1043 162.029 16.0703 162.069 16.0363C162.299 15.8418 162.524 15.6416 162.742 15.4357C162.874 15.3111 162.948 15.1637 162.975 15.0124C163 14.8574 162.979 14.7023 162.92 14.5624Z" fill="url(#paint5_linear_245_1742)"/>
<path d="M129.773 23.9812C129.749 23.9812 129.722 23.9793 129.699 23.9736C129.674 23.9698 129.649 23.9622 129.626 23.9528C129.604 23.9433 129.581 23.9319 129.562 23.9168C129.541 23.9035 129.52 23.8884 129.503 23.8713C129.485 23.8524 129.47 23.8335 129.455 23.8127C129.442 23.7919 129.43 23.7711 129.421 23.7484C129.411 23.7257 129.404 23.7011 129.4 23.6765C129.394 23.6519 129.392 23.6273 129.392 23.6028C129.392 23.5782 129.394 23.5536 129.4 23.529C129.404 23.5045 129.411 23.4818 129.421 23.4591C129.431 23.4364 129.442 23.4137 129.455 23.393C129.471 23.3722 129.486 23.3533 129.503 23.3363C129.52 23.3174 129.541 23.3023 129.562 23.2891C129.581 23.2758 129.604 23.2626 129.627 23.2532C129.65 23.2438 129.675 23.2362 129.7 23.2325C129.747 23.2231 129.799 23.2231 129.848 23.2326C129.871 23.2364 129.896 23.244 129.919 23.2535C129.942 23.2629 129.965 23.2762 129.986 23.2894C130.007 23.3027 130.026 23.3178 130.043 23.3368C130.06 23.3538 130.077 23.3727 130.091 23.3935C130.104 23.4143 130.115 23.437 130.125 23.4597C130.134 23.4824 130.142 23.5051 130.148 23.5297C130.151 23.5543 130.155 23.5789 130.155 23.6035C130.155 23.628 130.151 23.6526 130.147 23.6772C130.142 23.7018 130.134 23.7263 130.125 23.749C130.115 23.7717 130.103 23.7925 130.09 23.8133C130.077 23.834 130.06 23.8529 130.042 23.8718C130.025 23.8888 130.006 23.9039 129.985 23.9172C129.964 23.9323 129.941 23.9436 129.918 23.953C129.895 23.9624 129.871 23.97 129.848 23.9737C129.823 23.9794 129.798 23.9813 129.773 23.9812Z" fill="#085372"/>
<path d="M130.501 23.3755C130.438 23.1769 130.549 22.9652 130.749 22.9011C130.952 22.8389 131.166 22.9488 131.23 23.1473C131.293 23.3459 131.182 23.5595 130.982 23.6217C130.942 23.6349 130.903 23.6405 130.865 23.6405C130.703 23.6404 130.552 23.5362 130.501 23.3755ZM131.593 23.0342C131.528 22.8337 131.641 22.6221 131.842 22.5599C132.042 22.4958 132.258 22.6056 132.321 22.8061C132.385 23.0047 132.272 23.2182 132.072 23.2805C132.034 23.2918 131.996 23.2974 131.957 23.2974C131.795 23.2972 131.644 23.195 131.593 23.0342ZM132.683 22.6911C132.621 22.4925 132.732 22.2808 132.932 22.2167C133.134 22.1545 133.348 22.2644 133.413 22.463C133.476 22.6634 133.365 22.8751 133.162 22.9373C133.124 22.9505 133.086 22.9562 133.048 22.9561C132.885 22.956 132.735 22.8519 132.683 22.6911ZM142.504 19.6142C142.441 19.4137 142.552 19.202 142.753 19.1379C142.955 19.0757 143.169 19.1856 143.233 19.3861C143.296 19.5847 143.185 19.7963 142.983 19.8604C142.945 19.8717 142.906 19.8774 142.868 19.8773C142.706 19.8772 142.555 19.775 142.504 19.6142ZM143.596 19.2711C143.531 19.0725 143.644 18.8589 143.845 18.7967C144.045 18.7345 144.261 18.8443 144.324 19.0429C144.388 19.2415 144.276 19.4551 144.075 19.5173C144.037 19.5305 143.997 19.5361 143.959 19.5361C143.796 19.536 143.648 19.4318 143.596 19.2711ZM144.686 18.9298C144.624 18.7312 144.735 18.5177 144.935 18.4554C145.137 18.3913 145.351 18.5012 145.414 18.7017C145.479 18.9003 145.368 19.1119 145.165 19.176C145.127 19.1874 145.089 19.193 145.051 19.193C144.889 19.1928 144.738 19.0906 144.686 18.9298ZM145.779 18.5867C145.714 18.3881 145.827 18.1745 146.027 18.1123C146.228 18.0501 146.443 18.16 146.506 18.3585C146.569 18.559 146.458 18.7707 146.258 18.8329C146.219 18.8461 146.179 18.8517 146.141 18.8517C145.981 18.8516 145.83 18.7474 145.779 18.5867ZM146.869 18.2454C146.806 18.0468 146.917 17.8333 147.118 17.7711C147.318 17.707 147.534 17.8187 147.597 18.0173C147.661 18.2159 147.55 18.4295 147.348 18.4917C147.31 18.503 147.272 18.5086 147.233 18.5086C147.071 18.5084 146.92 18.4062 146.869 18.2454ZM149.052 17.561C148.989 17.3625 149.1 17.1489 149.3 17.0867C149.503 17.0226 149.716 17.1343 149.779 17.3329C149.844 17.5315 149.731 17.7451 149.53 17.8073C149.492 17.8205 149.454 17.8261 149.416 17.8261C149.254 17.8259 149.103 17.7218 149.052 17.561ZM150.144 17.2198C150.079 17.0193 150.19 16.8076 150.392 16.7435C150.593 16.6813 150.807 16.7912 150.871 16.9917C150.934 17.1903 150.823 17.4019 150.623 17.466C150.584 17.4773 150.544 17.483 150.506 17.4829C150.344 17.4828 150.193 17.3806 150.144 17.2198ZM151.234 16.8767C151.169 16.6781 151.282 16.4664 151.483 16.4023C151.683 16.3401 151.899 16.4499 151.962 16.6485C152.026 16.8471 151.913 17.0607 151.713 17.1229C151.675 17.1361 151.637 17.1417 151.598 17.1417C151.436 17.1416 151.285 17.0374 151.234 16.8767ZM152.324 16.5354C152.262 16.3368 152.373 16.1233 152.575 16.061C152.775 15.9969 152.989 16.1068 153.054 16.3073C153.117 16.5059 153.006 16.7175 152.805 16.7816C152.765 16.793 152.727 16.7986 152.689 16.7986C152.526 16.7984 152.378 16.6962 152.324 16.5354Z" fill="#085372"/>
<path d="M153.779 16.4578C153.678 16.4577 153.579 16.416 153.508 16.346C153.438 16.276 153.396 16.1776 153.396 16.0793C153.396 15.9791 153.438 15.8827 153.509 15.8109C153.526 15.7939 153.547 15.7788 153.568 15.7656C153.587 15.7505 153.61 15.7392 153.633 15.7298C153.656 15.7203 153.681 15.7128 153.705 15.709C153.753 15.6996 153.805 15.6997 153.854 15.7092C153.879 15.713 153.902 15.7206 153.925 15.73C153.948 15.7395 153.971 15.7509 153.992 15.766C154.013 15.7793 154.032 15.7944 154.049 15.8114C154.119 15.8834 154.161 15.9798 154.161 16.08C154.161 16.1783 154.119 16.2766 154.048 16.3465C154.031 16.3635 154.012 16.3805 153.991 16.3937C153.97 16.4069 153.947 16.4201 153.924 16.4296C153.901 16.439 153.878 16.4447 153.854 16.4503C153.829 16.456 153.804 16.4578 153.779 16.4578Z" fill="#085372"/>
<path opacity="0.89" d="M127.463 14.9817L128.221 14.9087L130.677 16.9888L144.193 20.9073L138.221 23.7058L129.901 18.2832L127.463 14.9817Z" fill="url(#paint6_linear_245_1742)"/>
<path d="M145.361 24.0524L139.142 25.5613C138.957 25.6065 138.768 25.5004 138.713 25.3189L138.06 23.1837C138.005 23.0021 138.102 22.8093 138.282 22.7452L144.299 20.5801L145.361 24.0524Z" fill="#0075DB"/>
<path d="M145.161 22.2183C145.454 23.1771 145.539 23.9996 145.352 24.0562C145.165 24.1128 144.775 23.3807 144.482 22.4219C144.189 21.4631 144.102 20.6405 144.291 20.584C144.478 20.5274 144.868 21.2595 145.161 22.2183Z" fill="#085372"/>
<path d="M145.161 22.2183C145.454 23.1771 145.539 23.9996 145.352 24.0562C145.165 24.1128 144.775 23.3807 144.482 22.4219C144.189 21.4631 144.102 20.6405 144.291 20.584C144.478 20.5274 144.868 21.2595 145.161 22.2183Z" stroke="#027D8E" stroke-width="1.2083" stroke-miterlimit="10"/>
<path d="M138.141 23.4485L136.953 24.3152C136.659 24.5286 136.792 24.9901 137.156 25.0169L138.655 25.1279L138.141 23.4485Z" fill="#085372"/>
<path opacity="0.88" d="M159.694 13.8767L157.376 14.6346L156.789 14.0518L158.123 13.55C158.121 13.55 159.133 13.6966 159.694 13.8767Z" fill="url(#paint7_linear_245_1742)"/>
<defs>
<linearGradient id="paint0_linear_245_1742" x1="16.2803" y1="11.375" x2="73.4981" y2="53.1935" gradientUnits="userSpaceOnUse">
<stop stop-color="#FFB500"/>
<stop offset="1" stop-color="#F93800"/>
</linearGradient>
<linearGradient id="paint1_linear_245_1742" x1="16.2803" y1="11.375" x2="73.4981" y2="53.1935" gradientUnits="userSpaceOnUse">
<stop stop-color="#FFB500"/>
<stop offset="1" stop-color="#F93800"/>
</linearGradient>
<linearGradient id="paint2_linear_245_1742" x1="16.2803" y1="11.375" x2="73.4981" y2="53.1935" gradientUnits="userSpaceOnUse">
<stop stop-color="#FFB500"/>
<stop offset="1" stop-color="#F93800"/>
</linearGradient>
<linearGradient id="paint3_linear_245_1742" x1="123.099" y1="9.58425" x2="160.328" y2="7.48435" gradientUnits="userSpaceOnUse">
<stop stop-color="#F19100"/>
<stop offset="0.9944" stop-color="#FFCD23"/>
</linearGradient>
<linearGradient id="paint4_linear_245_1742" x1="121.547" y1="20.6101" x2="154.88" y2="20.6417" gradientUnits="userSpaceOnUse">
<stop stop-color="#F19100"/>
<stop offset="0.9944" stop-color="#FFCD23"/>
</linearGradient>
<linearGradient id="paint5_linear_245_1742" x1="111.091" y1="20.673" x2="162.979" y2="20.7217" gradientUnits="userSpaceOnUse">
<stop stop-color="#007A8B"/>
<stop offset="1" stop-color="#33BED1"/>
</linearGradient>
<linearGradient id="paint6_linear_245_1742" x1="127.459" y1="19.302" x2="144.193" y2="19.3179" gradientUnits="userSpaceOnUse">
<stop stop-color="#00454F"/>
<stop offset="1" stop-color="#027D8E"/>
</linearGradient>
<linearGradient id="paint7_linear_245_1742" x1="156.787" y1="14.0919" x2="159.694" y2="14.0946" gradientUnits="userSpaceOnUse">
<stop stop-color="#0050B8"/>
<stop offset="1" stop-color="#00B2ED"/>
</linearGradient>
</defs>
</svg>
