<svg width="0" height="0" class="hidden">
  <symbol fill="none" xmlns="http://www.w3.org/2000/svg" viewBox="0 0 9 16" id="chevron-right">
    <path d="M1.13666 15.2649C0.91274 15.0237 0.800781 14.7168 0.800781 14.3441C0.800781 13.9714 0.91274 13.6645 1.13666 13.4233L5.90002 8.29329L1.13666 3.16325C0.91274 2.92209 0.800781 2.61517 0.800781 2.24247C0.800781 1.86978 0.91274 1.56285 1.13666 1.32169C1.36058 1.08054 1.64556 0.959961 1.99162 0.959961C2.33768 0.959961 2.62266 1.08054 2.84658 1.32169L8.4649 7.37252C8.58704 7.50406 8.67376 7.64656 8.72506 7.80002C8.77554 7.95348 8.80078 8.11791 8.80078 8.29329C8.80078 8.46868 8.77554 8.6331 8.72506 8.78657C8.67376 8.94003 8.58704 9.08253 8.4649 9.21407L2.84658 15.2649C2.62266 15.506 2.33768 15.6266 1.99162 15.6266C1.64556 15.6266 1.36058 15.506 1.13666 15.2649Z" fill="currentColor"></path>
  </symbol>
  <symbol fill="none" xmlns="http://www.w3.org/2000/svg" viewBox="0 0 17 8" id="arrow-right">
    <path d="M17 3.99998L16.6816 3.68552L12.2268 0.5L11.8563 1.2L15.2198 3.56248L-1.33865e-07 3.56248L-1.68288e-07 4.34998L15.2198 4.43748L12.2268 6.8L12.5973 7.5L16.6816 4.31443L17 3.99998Z" fill="currentColor"></path>
  </symbol>
  <symbol fill="none" xmlns="http://www.w3.org/2000/svg" viewBox="0 0 9 16" id="chevron-left">
    <path d="M7.86334 15.2649C8.08726 15.0237 8.19922 14.7168 8.19922 14.3441C8.19922 13.9714 8.08726 13.6645 7.86334 13.4233L3.09998 8.29329L7.86334 3.16325C8.08726 2.92209 8.19922 2.61517 8.19922 2.24247C8.19922 1.86978 8.08726 1.56285 7.86334 1.32169C7.63942 1.08054 7.35444 0.959961 7.00838 0.959961C6.66232 0.959961 6.37734 1.08054 6.15342 1.32169L0.535097 7.37252C0.41296 7.50406 0.326242 7.64656 0.274944 7.80002C0.224461 7.95348 0.199219 8.11791 0.199219 8.29329C0.199219 8.46868 0.224461 8.6331 0.274944 8.78657C0.326242 8.94003 0.41296 9.08253 0.535097 9.21407L6.15342 15.2649C6.37734 15.506 6.66232 15.6266 7.00838 15.6266C7.35444 15.6266 7.63942 15.506 7.86334 15.2649Z" fill="currentColor"></path>
  </symbol>
  <symbol id="telegram" xmlns="http://www.w3.org/2000/svg" viewBox="0 0 16 16" fill="none">
    <path d="M14.8321 0.8296L0.62267 6.7436C0.62267 6.7436 -0.0491298 6.9878 0.00287018 7.4382C0.0562702 7.8894 0.60447 8.0958 0.60447 8.0958L4.17987 9.3722C4.17987 9.3722 5.25907 13.1266 5.47147 13.841C5.68387 14.5534 5.85427 14.5702 5.85427 14.5702C6.05207 14.6614 6.23187 14.5162 6.23187 14.5162L8.54187 12.2824L12.1421 15.2108C13.1159 15.6614 13.4703 14.7226 13.4703 14.7226L16.0001 1.187C16.0001 0.2854 14.8321 0.8296 14.8321 0.8296ZM12.3165 13.634L8.46487 10.502L7.26967 11.6574L7.53247 9.1992L12.6665 4.3334L5.66827 8.4882L2.56407 7.3802L14.4075 2.4506L12.3165 13.634Z" fill="currentColor"/>
  </symbol>
</svg>