<svg width="9" height="16" viewBox="0 0 9 16" fill="none" xmlns="http://www.w3.org/2000/svg">
<path d="M1.13666 15.2649C0.91274 15.0237 0.800781 14.7168 0.800781 14.3441C0.800781 13.9714 0.91274 13.6645 1.13666 13.4233L5.90002 8.29329L1.13666 3.16325C0.91274 2.92209 0.800781 2.61517 0.800781 2.24247C0.800781 1.86978 0.91274 1.56285 1.13666 1.32169C1.36058 1.08054 1.64556 0.959961 1.99162 0.959961C2.33768 0.959961 2.62266 1.08054 2.84658 1.32169L8.4649 7.37252C8.58704 7.50406 8.67376 7.64656 8.72506 7.80002C8.77554 7.95348 8.80078 8.11791 8.80078 8.29329C8.80078 8.46868 8.77554 8.6331 8.72506 8.78657C8.67376 8.94003 8.58704 9.08253 8.4649 9.21407L2.84658 15.2649C2.62266 15.506 2.33768 15.6266 1.99162 15.6266C1.64556 15.6266 1.36058 15.506 1.13666 15.2649Z" fill="#606060"/>
</svg>
