<svg width="9" height="16" viewBox="0 0 9 16" fill="none" xmlns="http://www.w3.org/2000/svg">
<path d="M7.86334 15.2649C8.08726 15.0237 8.19922 14.7168 8.19922 14.3441C8.19922 13.9714 8.08726 13.6645 7.86334 13.4233L3.09998 8.29329L7.86334 3.16325C8.08726 2.92209 8.19922 2.61517 8.19922 2.24247C8.19922 1.86978 8.08726 1.56285 7.86334 1.32169C7.63942 1.08054 7.35444 0.959961 7.00838 0.959961C6.66232 0.959961 6.37734 1.08054 6.15342 1.32169L0.535097 7.37252C0.41296 7.50406 0.326242 7.64656 0.274944 7.80002C0.224461 7.95348 0.199219 8.11791 0.199219 8.29329C0.199219 8.46868 0.224461 8.6331 0.274944 8.78657C0.326242 8.94003 0.41296 9.08253 0.535097 9.21407L6.15342 15.2649C6.37734 15.506 6.66232 15.6266 7.00838 15.6266C7.35444 15.6266 7.63942 15.506 7.86334 15.2649Z" fill="#606060"/>
</svg>
